<svg xmlns="http://www.w3.org/2000/svg" xmlns:xlink="http://www.w3.org/1999/xlink" version="1.1" x="0px" y="0px" viewBox="0 0 48 48" enable-background="new 0 0 48 48" xml:space="preserve"><rect x="5.637" y="17.428" fill="#000000" width="36.556" height="6.367"></rect><path fill="#000000" d="M46.339,6.646H1.385C0.62,6.646,0,7.266,0,8.031v31.938c0,0.765,0.62,1.385,1.385,1.385h44.954  c0.765,0,1.385-0.62,1.385-1.385V8.031C47.724,7.266,47.104,6.646,46.339,6.646z M13.807,9.607c0.854,0,1.546,0.692,1.546,1.546  s-0.692,1.546-1.546,1.546s-1.546-0.692-1.546-1.546S12.953,9.607,13.807,9.607z M9.732,9.607c0.854,0,1.546,0.692,1.546,1.546  s-0.692,1.546-1.546,1.546s-1.546-0.692-1.546-1.546S8.877,9.607,9.732,9.607z M5.474,9.607c0.854,0,1.546,0.692,1.546,1.546  s-0.692,1.546-1.546,1.546c-0.854,0-1.546-0.692-1.546-1.546S4.62,9.607,5.474,9.607z M44.831,38.944h-2.844V25.771H25.352v13.173  h-3.081V25.771H5.637v13.173H2.892V15.323h41.939V38.944z"></path><path fill="#000000" stroke="#000000" stroke-width="0.0801" stroke-linecap="round" stroke-linejoin="round" d="M23.718,29.38"></path><path fill="#000000" stroke="#000000" stroke-width="0.0801" stroke-linecap="round" stroke-linejoin="round" d="M23.957,28.698"></path></svg>